<?xml version="1.0" standalone="no"?>
<!DOCTYPE svg PUBLIC "-//W3C//DTD SVG 20010904//EN"
 "http://www.w3.org/TR/2001/REC-SVG-20010904/DTD/svg10.dtd">
<svg version="1.0" xmlns="http://www.w3.org/2000/svg"
 width="128.000000pt" height="128.000000pt" viewBox="0 0 128.000000 128.000000"
 preserveAspectRatio="xMidYMid meet">
<metadata>
Created by potrace 1.14, written by Peter Selinger 2001-2017
</metadata>
<g transform="translate(0.000000,128.000000) scale(0.100000,-0.100000)"
fill="#000000" stroke="none">
<path d="M206 1255 c-34 -32 -35 -77 -1 -110 l24 -25 291 0 291 0 24 25 c16
15 25 36 25 55 0 19 -9 40 -25 55 l-24 25 -289 0 -289 0 -27 -25z"/>
<path d="M395 910 c-23 -25 -14 -88 21 -147 l25 -43 -104 0 c-97 0 -106 -2
-131 -25 -34 -32 -35 -77 -1 -110 23 -23 31 -25 130 -25 58 0 105 -3 105 -6 0
-4 -8 -21 -19 -38 -28 -46 -44 -104 -37 -132 12 -46 84 -54 103 -11 56 129
106 187 160 187 33 0 33 0 33 -48 0 -64 26 -92 67 -73 50 23 288 164 295 175
16 24 7 52 -25 72 -76 50 -281 164 -295 164 -25 0 -42 -33 -42 -81 l0 -49 -39
0 c-34 0 -45 6 -80 46 -22 25 -47 68 -56 95 -23 69 -72 91 -110 49z"/>
<path d="M206 135 c-34 -32 -35 -77 -1 -110 l24 -25 291 0 291 0 24 25 c16 15
25 36 25 55 0 19 -9 40 -25 55 l-24 25 -289 0 -289 0 -27 -25z"/>
</g>
</svg>
