<svg 
 xmlns="http://www.w3.org/2000/svg"
 xmlns:xlink="http://www.w3.org/1999/xlink"
 width="34px" height="57px">
<path fill-rule="evenodd"  fill="rgb(254, 42, 42)"
 d="M4.354,54.319 C4.354,52.756 3.742,51.630 2.174,51.630 C0.690,51.630 0.8,52.756 0.8,54.319 C0.8,55.882 0.690,56.922 2.174,56.922 C3.742,56.922 4.354,55.882 4.354,54.319 ZM0.776,30.973 C0.776,34.271 3.306,41.127 12.291,41.215 C9.935,39.566 6.447,36.961 5.575,32.623 C5.399,31.146 5.50,29.238 5.139,27.69 C5.226,24.811 5.488,22.555 6.11,20.906 C2.434,23.771 0.776,27.675 0.776,30.973 ZM14.384,44.948 C11.70,44.424 3.918,43.557 2.959,43.385 C1.388,44.859 1.213,46.249 1.648,48.70 C1.648,48.70 6.883,48.418 9.585,49.199 C12.291,49.981 14.34,51.369 17.262,51.716 C20.924,52.150 23.715,52.670 25.23,52.756 C26.245,52.931 27.639,53.799 29.210,53.972 C28.424,51.455 28.947,49.719 30.867,48.852 L30.867,48.590 C28.860,48.590 24.764,47.809 20.664,46.769 C18.308,46.249 16.477,45.292 14.384,44.948 ZM13.249,51.889 C10.893,50.935 8.454,49.633 6.97,49.633 L3.219,50.760 C5.488,52.64 5.575,53.885 5.50,56.230 L13.249,51.889 ZM7.579,25.592 C7.579,34.271 11.765,38.609 15.605,41.474 C16.128,38.957 17.871,35.921 19.791,33.576 C20.664,32.450 23.17,29.844 23.802,28.457 C24.764,26.808 25.895,25.158 25.895,19.952 C25.895,12.922 21.186,2.941 18.570,0.77 C18.570,3.895 17.523,6.65 15.692,8.581 C14.384,10.230 7.579,19.171 7.579,25.592 ZM33.134,45.33 C33.746,43.298 32.787,42.83 31.130,41.474 L26.681,42.517 C24.764,42.951 21.709,43.298 18.570,44.948 C20.837,45.815 24.587,46.683 26.854,46.942 L33.134,45.33 ZM32.438,32.709 C34.355,25.767 31.130,17.2 27.639,14.138 C28.424,18.304 28.338,21.602 28.165,23.251 C27.989,26.112 24.587,31.146 22.145,33.924 C21.186,34.967 19.266,37.918 19.266,39.133 C19.266,39.911 19.6,40.434 19.266,41.215 C22.58,39.739 25.23,39.739 27.380,38.609 C29.36,37.828 31.915,35.225 32.438,32.709 ZM31.739,54.405 C33.134,54.405 34.8,53.104 34.8,51.889 C34.8,50.587 33.483,49.199 32.438,49.199 C31.217,49.199 30.82,50.587 30.82,52.150 C30.82,53.104 30.344,54.405 31.739,54.405 Z"/>
</svg>