<svg width="46" height="46" viewBox="0 0 46 46" fill="none" xmlns="http://www.w3.org/2000/svg">
<path opacity="0.1" fill-rule="evenodd" clip-rule="evenodd" d="M0 23C0 10.2975 10.2975 0 23 0C35.7025 0 46 10.2975 46 23C46 35.7025 35.7025 46 23 46C10.2975 46 0 35.7025 0 23Z" fill="white"/>
<path d="M14.375 14.375H31.625C32.8109 14.375 33.7812 15.3453 33.7812 16.5312V29.4687C33.7812 30.6547 32.8109 31.625 31.625 31.625H14.375C13.1891 31.625 12.2188 30.6547 12.2188 29.4687V16.5312C12.2188 15.3453 13.1891 14.375 14.375 14.375Z" stroke="white" stroke-width="2" stroke-linecap="round" stroke-linejoin="round"/>
<path d="M33.7812 16.5313L23 24.0781L12.2188 16.5313" stroke="white" stroke-width="2" stroke-linecap="round" stroke-linejoin="round"/>
</svg>
