<svg 
 xmlns="http://www.w3.org/2000/svg"
 xmlns:xlink="http://www.w3.org/1999/xlink"
 width="40px" height="28px">
<path fill-rule="evenodd"  fill="rgb(187, 213, 234)"
 d="M39.975,7.373 C39.956,6.556 39.773,3.51 38.65,2.401 C34.551,1.65 25.866,0.1 19.992,0.1 C14.117,0.1 5.433,1.65 1.918,2.401 C0.209,3.52 0.28,6.562 0.8,7.375 C0.20,7.613 0.17,7.846 0.22,8.56 L0.357,9.720 C0.534,10.631 1.421,11.227 2.338,11.50 L10.44,9.567 C10.960,9.391 11.559,8.510 11.382,7.599 L10.982,5.544 C11.693,5.445 12.406,5.352 13.112,5.267 L12.882,8.592 C12.882,8.592 1.388,14.681 1.388,16.945 C1.388,19.208 1.388,28.1 1.388,28.1 L19.992,28.1 L38.596,28.1 C38.596,28.1 38.596,19.134 38.596,16.945 C38.596,14.756 27.102,8.592 27.102,8.592 L26.871,5.267 C27.578,5.352 28.290,5.445 29.1,5.544 L28.601,7.599 C28.423,8.510 29.23,9.391 29.939,9.567 L37.646,11.50 C38.563,11.227 39.449,10.631 39.627,9.720 L39.961,8.56 C40.1,7.846 40.4,7.612 39.975,7.373 ZM19.992,4.757 C20.707,4.757 23.446,4.884 24.258,4.987 C24.258,4.972 23.992,8.272 23.986,8.262 L19.992,8.262 L15.997,8.262 L15.750,4.984 C17.299,4.842 18.751,4.757 19.992,4.757 ZM19.992,23.466 C17.25,23.466 14.619,21.243 14.619,18.500 C14.619,15.756 17.25,13.533 19.992,13.533 C22.960,13.533 25.365,15.756 25.365,18.500 C25.365,21.243 22.960,23.466 19.992,23.466 Z"/>
</svg>