<svg 
 xmlns="http://www.w3.org/2000/svg"
 xmlns:xlink="http://www.w3.org/1999/xlink"
 width="54px" height="54px">
<path fill-rule="evenodd"  fill="rgb(187, 213, 234)"
 d="M53.989,26.589 L45.509,26.589 C45.244,16.786 37.311,8.877 27.498,8.653 L27.498,0.10 L26.595,0.10 L26.595,8.656 C16.809,8.910 8.907,16.806 8.642,26.589 L0.10,26.589 L0.10,27.489 L8.636,27.489 C8.848,37.320 16.775,45.270 26.595,45.524 L26.595,53.989 L27.498,53.989 L27.498,45.528 C37.345,45.303 45.303,37.340 45.515,27.489 L53.989,27.489 L53.989,26.589 ZM26.595,9.556 L26.595,18.111 C22.16,18.353 18.350,22.13 18.97,26.589 L26.596,26.589 L26.596,18.105 L27.497,18.105 L27.497,26.589 L36.55,26.589 C35.801,21.993 32.106,18.322 27.498,18.107 L27.498,9.553 C36.816,9.776 44.342,17.283 44.607,26.589 L36.74,26.589 L36.74,27.489 L27.497,27.489 L27.497,36.92 L26.596,36.92 L26.596,27.489 L18.86,27.489 L18.86,26.589 L9.544,26.589 C9.808,17.302 17.305,9.810 26.595,9.556 ZM9.539,27.489 L18.92,27.489 C18.296,32.113 21.982,35.826 26.595,36.70 L26.595,44.625 C17.271,44.370 9.749,36.824 9.539,27.489 ZM27.498,44.628 L27.498,36.74 C32.140,35.857 35.857,32.133 36.61,27.489 L44.613,27.489 C44.402,36.844 36.850,44.404 27.498,44.628 Z"/>
</svg>