<svg 
 xmlns="http://www.w3.org/2000/svg"
 xmlns:xlink="http://www.w3.org/1999/xlink"
 width="58px" height="51px">
<path fill-rule="evenodd"  fill="rgb(187, 213, 234)"
 d="M57.18,2.479 L56.996,2.484 L48.595,4.332 L47.591,18.302 L47.591,20.455 L47.436,20.455 L46.214,37.445 C46.214,37.983 45.959,38.272 45.683,38.428 C45.581,38.494 45.460,38.544 45.316,38.570 C45.134,38.613 44.996,38.613 44.996,38.613 L44.975,38.613 L4.693,38.613 C4.693,38.613 3.475,38.623 3.475,37.445 C3.475,36.247 4.693,36.180 4.693,36.180 L43.882,36.180 L44.192,31.860 L4.161,31.860 L0.2,8.129 L46.348,1.859 L46.398,1.161 L46.401,1.139 C46.401,1.139 46.550,0.76 47.738,0.4 C48.904,0.83 48.811,1.306 48.811,1.306 L48.811,1.327 L48.777,1.803 L56.480,0.107 L56.503,0.102 C56.503,0.102 57.707,0.93 57.960,1.76 C58.211,2.227 57.18,2.479 57.18,2.479 ZM38.306,29.423 L44.367,29.426 L45.12,20.455 L38.63,20.455 L38.306,29.423 ZM9.8,9.369 L2.814,10.208 L4.190,18.23 L9.692,18.23 L9.8,9.369 ZM9.884,20.455 L4.619,20.455 L6.195,29.405 L10.592,29.407 L9.884,20.455 ZM20.430,7.823 L11.408,9.44 L12.118,18.23 L21.72,18.23 L20.430,7.823 ZM21.226,20.455 L12.310,20.455 L13.18,29.409 L21.790,29.414 L21.226,20.455 ZM35.247,5.817 L22.832,7.498 L23.495,18.23 L35.578,18.23 L35.247,5.817 ZM35.644,20.455 L23.648,20.455 L24.213,29.415 L35.887,29.422 L35.644,20.455 ZM37.657,5.491 L37.997,18.23 L45.187,18.23 L46.170,4.338 L37.657,5.491 ZM12.276,42.109 C14.712,42.119 16.684,44.110 16.681,46.562 C16.674,49.14 14.698,51.0 12.259,50.995 C9.823,50.990 7.852,49.0 7.857,46.548 C7.861,44.96 9.837,42.109 12.276,42.109 ZM41.703,39.463 C44.869,39.463 47.432,42.43 47.432,45.227 C47.432,48.410 44.869,50.995 41.703,50.995 C38.537,50.995 35.973,48.410 35.973,45.227 C35.973,42.43 38.537,39.463 41.703,39.463 Z"/>
</svg>