<svg 
 xmlns="http://www.w3.org/2000/svg"
 xmlns:xlink="http://www.w3.org/1999/xlink"
 width="27px" height="27px">
<path fill-rule="evenodd"  fill="rgb(187, 213, 234)"
 d="M13.498,0.1 C20.955,0.1 27.0,6.45 27.0,13.501 C27.0,20.957 20.955,27.1 13.498,27.1 C6.41,27.1 0.3,20.957 0.3,13.501 C0.3,6.45 6.41,0.1 13.498,0.1 ZM19.644,13.697 C20.184,13.697 20.625,13.256 20.625,12.717 L20.625,10.363 C20.625,9.824 20.184,9.382 19.644,9.382 C19.105,9.382 18.664,9.824 18.664,10.363 L18.664,12.717 C18.664,13.256 19.105,13.697 19.644,13.697 ZM8.93,17.210 C8.489,18.596 10.133,21.216 13.519,21.216 C16.909,21.216 18.524,18.611 18.904,17.233 C18.990,16.920 18.806,16.596 18.493,16.509 C18.179,16.423 17.856,16.607 17.769,16.920 C17.734,17.46 16.847,20.40 13.519,20.40 C10.187,20.40 9.262,17.14 9.224,16.885 C9.133,16.574 8.807,16.394 8.496,16.484 C8.184,16.574 8.4,16.898 8.93,17.210 ZM6.371,12.717 C6.371,13.256 6.812,13.697 7.351,13.697 C7.891,13.697 8.332,13.256 8.332,12.717 L8.332,10.363 C8.332,9.824 7.891,9.382 7.351,9.382 C6.812,9.382 6.371,9.824 6.371,10.363 L6.371,12.717 Z"/>
</svg>