<svg width="46" height="46" viewBox="0 0 46 46" fill="none" xmlns="http://www.w3.org/2000/svg">
<path opacity="0.1" fill-rule="evenodd" clip-rule="evenodd" d="M0 23C0 10.2975 10.2975 0 23 0C35.7025 0 46 10.2975 46 23C46 35.7025 35.7025 46 23 46C10.2975 46 0 35.7025 0 23Z" fill="white"/>
<path fill-rule="evenodd" clip-rule="evenodd" d="M23.0012 10.7333C19.6697 10.7333 19.2516 10.7479 17.9431 10.8074C16.6372 10.8672 15.7459 11.074 14.9659 11.3773C14.1591 11.6907 13.4747 12.1098 12.7929 12.7919C12.1105 13.4737 11.6914 14.1581 11.3771 14.9646C11.073 15.7448 10.866 16.6365 10.8072 17.9419C10.7487 19.2503 10.7333 19.6687 10.7333 23.0001C10.7333 26.3316 10.7482 26.7484 10.8074 28.0569C10.8675 29.3628 11.0743 30.2542 11.3773 31.0341C11.6909 31.8409 12.11 32.5253 12.7921 33.2071C13.4737 33.8895 14.1581 34.3096 14.9644 34.6229C15.7448 34.9263 16.6365 35.133 17.9421 35.1928C19.2506 35.2524 19.6684 35.2669 22.9996 35.2669C26.3313 35.2669 26.7482 35.2524 28.0566 35.1928C29.3625 35.133 30.2549 34.9263 31.0354 34.6229C31.8419 34.3096 32.5253 33.8895 33.2069 33.2071C33.8892 32.5253 34.3083 31.8409 34.6227 31.0344C34.9242 30.2542 35.1312 29.3625 35.1926 28.0571C35.2513 26.7487 35.2667 26.3316 35.2667 23.0001C35.2667 19.6687 35.2513 19.2506 35.1926 17.9421C35.1312 16.6362 34.9242 15.7448 34.6227 14.9649C34.3083 14.1581 33.8892 13.4737 33.2069 12.7919C32.5245 12.1095 31.8422 11.6904 31.0346 11.3773C30.2526 11.074 29.3607 10.8672 28.0548 10.8074C26.7464 10.7479 26.3298 10.7333 22.9973 10.7333H23.0012ZM21.9007 12.9439C22.2273 12.9434 22.5917 12.9439 23.0011 12.9439C26.2763 12.9439 26.6645 12.9556 27.9579 13.0144C29.1539 13.0691 29.803 13.269 30.2354 13.4369C30.8079 13.6592 31.216 13.925 31.6451 14.3543C32.0744 14.7836 32.3402 15.1925 32.5631 15.765C32.731 16.1969 32.9311 16.846 32.9855 18.042C33.0443 19.3351 33.0571 19.7236 33.0571 22.9973C33.0571 26.271 33.0443 26.6594 32.9855 27.9526C32.9308 29.1486 32.731 29.7977 32.5631 30.2296C32.3407 30.802 32.0744 31.2097 31.6451 31.6387C31.2158 32.0681 30.8082 32.3339 30.2354 32.5562C29.8036 32.7249 29.1539 32.9242 27.9579 32.9789C26.6648 33.0377 26.2763 33.0504 23.0011 33.0504C19.7256 33.0504 19.3374 33.0377 18.0443 32.9789C16.8483 32.9237 16.1992 32.7238 15.7665 32.5559C15.1941 32.3336 14.7852 32.0678 14.3558 31.6385C13.9265 31.2091 13.6607 30.8013 13.4379 30.2286C13.27 29.7967 13.0699 29.1476 13.0154 27.9515C12.9566 26.6584 12.9449 26.27 12.9449 22.9942C12.9449 19.7185 12.9566 19.3321 13.0154 18.0389C13.0701 16.8429 13.27 16.1938 13.4379 15.7614C13.6602 15.189 13.9265 14.7801 14.3558 14.3507C14.7852 13.9214 15.1941 13.6556 15.7665 13.4328C16.1989 13.2641 16.8483 13.0648 18.0443 13.0098C19.1759 12.9587 19.6144 12.9434 21.9007 12.9408V12.9439ZM29.549 14.9807C28.7363 14.9807 28.077 15.6393 28.077 16.4522C28.077 17.2649 28.7363 17.9242 29.549 17.9242C30.3617 17.9242 31.021 17.2649 31.021 16.4522C31.021 15.6395 30.3617 14.9807 29.549 14.9807ZM23.0012 16.7006C19.5223 16.7006 16.7017 19.5212 16.7017 23.0001C16.7017 26.479 19.5223 29.2983 23.0012 29.2983C26.4801 29.2983 29.2997 26.479 29.2997 23.0001C29.2997 19.5212 26.4801 16.7006 23.0012 16.7006ZM23.0011 18.9112C25.2592 18.9112 27.0901 20.7417 27.0901 23.0001C27.0901 25.2582 25.2592 27.089 23.0011 27.089C20.7428 27.089 18.9122 25.2582 18.9122 23.0001C18.9122 20.7417 20.7428 18.9112 23.0011 18.9112Z" fill="white"/>
</svg>
