<svg width="67" height="34" viewBox="0 0 67 34" fill="none" xmlns="http://www.w3.org/2000/svg">
<path fill-rule="evenodd" clip-rule="evenodd" d="M6.17314 0.719818C2.85943 0.719818 0.173141 3.40611 0.173141 6.71982V21.9444C0.173141 25.2581 2.85944 27.9444 6.17315 27.9444H29.7813C29.749 28.1532 29.7827 28.3765 29.8998 28.5844L32.5017 33.2037C32.8841 33.8827 33.8618 33.8827 34.2443 33.2037L36.8461 28.5844C36.9632 28.3765 36.9969 28.1532 36.9647 27.9444H60.5731C63.8869 27.9444 66.5731 25.2581 66.5731 21.9444V6.71982C66.5731 3.40611 63.8868 0.719818 60.5731 0.719818H6.17314Z" fill="#fe2a2a"/>
<path fill-rule="evenodd" clip-rule="evenodd" d="M13.2079 5.19919C12.2424 5.19919 11.2904 5.4714 10.4471 5.98759C7.837 7.58745 6.91844 11.1593 8.43449 13.9468C8.71817 14.4688 9.2262 15.0957 9.87853 15.7749C10.5272 16.4503 11.3037 17.1622 12.1096 17.8542C13.7211 19.238 15.436 20.5298 16.4492 21.2717L16.4495 21.2719C16.6922 21.45 16.9774 21.5433 17.2771 21.5433C17.5761 21.5433 17.862 21.4504 18.11 21.2711C19.1234 20.5291 20.8377 19.2377 22.4489 17.8542C23.2547 17.1622 24.0312 16.4503 24.6799 15.7749C25.3322 15.0957 25.8402 14.4689 26.1239 13.9469C27.6359 11.1592 26.7171 7.58726 24.1069 5.98748C23.2636 5.47136 22.3117 5.19919 21.3463 5.19919C19.8997 5.19919 18.5382 5.78291 17.5146 6.82834L17.2771 7.07086L17.0396 6.82834C16.016 5.78291 14.6545 5.19919 13.2079 5.19919ZM10.099 5.43398C11.0435 4.85582 12.1156 4.54769 13.2079 4.54769C14.7292 4.54769 16.1631 5.12125 17.2771 6.14554C18.3911 5.12125 19.825 4.54769 21.3463 4.54769C22.4386 4.54769 23.5107 4.85582 24.4552 5.43398C27.3774 7.22499 28.3733 11.1808 26.706 14.2545C26.3803 14.8538 25.824 15.5309 25.1592 16.223C24.4908 16.9189 23.6974 17.6458 22.8824 18.3456C21.2523 19.7454 19.522 21.0485 18.5028 21.7948L18.5013 21.7959C18.1423 22.0557 17.72 22.1948 17.2771 22.1948C16.8346 22.1948 16.4114 22.0559 16.0554 21.7946C15.0361 21.0483 13.306 19.7453 11.676 18.3456C10.8611 17.6458 10.0676 16.9189 9.3992 16.223C8.73449 15.5309 8.17828 14.8541 7.85262 14.2548M10.099 5.43398C7.17681 7.22497 6.18089 11.181 7.85262 14.2548ZM10.7696 6.48679C11.5115 6.03316 12.3516 5.79127 13.2079 5.79127C14.7101 5.79127 16.0998 6.50822 17.0351 7.73704L17.0361 7.73829L17.2771 8.05818L17.5181 7.73829L17.5191 7.73704C18.4545 6.50808 19.8485 5.79127 21.3463 5.79127C22.2024 5.79127 23.0427 6.03303 23.7809 6.48707C26.1524 7.93936 26.947 11.1623 25.5841 13.6662C25.2787 14.2274 24.7219 14.8824 24.0578 15.5549C23.3887 16.2324 22.5911 16.9469 21.7851 17.6281C20.1727 18.9907 18.5118 20.2322 17.744 20.7956L17.7424 20.7968C17.4659 20.9971 17.0841 20.9971 16.8076 20.7968L16.8064 20.7959C16.0383 20.2343 14.3773 18.9939 12.7649 17.6312C11.9588 16.95 11.1612 16.2352 10.4921 15.5571C9.82809 14.8842 9.27128 14.2285 8.96591 13.6663M11.1177 7.04038C9.06139 8.30351 8.33865 11.1369 9.54767 13.358C9.80737 13.8363 10.3101 14.4388 10.9652 15.1026C11.6153 15.7614 12.3966 16.4621 13.1945 17.1364C14.7894 18.4843 16.4358 19.714 17.1988 20.2719C17.2425 20.3033 17.307 20.3034 17.3508 20.2722C18.1141 19.712 19.7606 18.4812 21.3555 17.1333C22.1534 16.459 22.9348 15.7585 23.5849 15.1002C24.24 14.4368 24.7426 13.8353 25.0023 13.3581C26.2115 11.1365 25.4882 8.29925 23.4324 7.04046L23.4318 7.0401C22.7954 6.64863 22.0756 6.44277 21.3463 6.44277C20.0697 6.44277 18.8664 7.05219 18.0476 8.1276C18.0475 8.12782 18.0473 8.12803 18.0471 8.12824L17.2771 9.15017L16.5071 8.12824C16.5069 8.12801 16.5067 8.12778 16.5065 8.12755C15.6876 7.05203 14.4885 6.44277 13.2079 6.44277C12.4789 6.44277 11.7588 6.6485 11.1177 7.04038ZM10.7696 6.48679L10.769 6.48713ZM10.769 6.48713C8.39798 7.94334 7.60285 11.162 8.96591 13.6663Z" fill="white"/>
<path d="M17.2771 21.8418C16.9069 21.8418 16.5535 21.7261 16.2548 21.5071C14.2271 20.0237 9.38065 16.3339 8.16484 14.0985C6.57461 11.1771 7.52959 7.42528 10.2894 5.7353C11.1812 5.18987 12.1909 4.90063 13.2174 4.90063C14.7529 4.90063 16.1959 5.52043 17.2771 6.62368C18.3583 5.52043 19.8013 4.90063 21.3368 4.90063C22.3633 4.90063 23.373 5.18987 24.2649 5.7353C27.0246 7.42528 27.9796 11.1771 26.3936 14.0985C25.1778 16.3339 20.3314 20.0237 18.3036 21.5071C18.0007 21.7261 17.6473 21.8418 17.2771 21.8418ZM13.2174 6.14023C12.4265 6.14023 11.6482 6.36336 10.9583 6.78482C8.74961 8.14012 14.7134 4.42959 15.9965 6.78482C17.1239 8.85908 23.0811 7.01831 17.0037 20.5113C17.1635 20.627 16.8438 11.4558 17.0037 11.3401C18.5308 10.2203 18.6503 8.58844 19.7777 6.51831C21.0608 4.16307 25.8004 8.13599 23.5918 6.78482C22.906 6.36336 15.0686 16.0183 14.2777 16.0183C12.8936 16.0183 18.657 6.80135 17.7819 7.95005L17.0037 20.5113L16.7723 7.95005C15.8972 6.80135 14.6057 6.14023 13.2174 6.14023Z" fill="white"/>
</svg>
