<svg width="46" height="46" viewBox="0 0 46 46" fill="none" xmlns="http://www.w3.org/2000/svg">
<path opacity="0.1" fill-rule="evenodd" clip-rule="evenodd" d="M0 23C0 10.2975 10.2975 0 23 0C35.7025 0 46 10.2975 46 23C46 35.7025 35.7025 46 23 46C10.2975 46 0 35.7025 0 23Z" fill="white"/>
<path d="M27.3125 18.6875C29.0281 18.6875 30.6735 19.369 31.8866 20.5822C33.0997 21.7953 33.7812 23.4406 33.7812 25.1563V32.7031H29.4688V25.1563C29.4688 24.5844 29.2416 24.0359 28.8372 23.6316C28.4328 23.2272 27.8844 23 27.3125 23C26.7406 23 26.1922 23.2272 25.7878 23.6316C25.3834 24.0359 25.1562 24.5844 25.1562 25.1563V32.7031H20.8438V25.1563C20.8438 23.4406 21.5253 21.7953 22.7384 20.5822C23.9515 19.369 25.5969 18.6875 27.3125 18.6875V18.6875Z" stroke="white" stroke-width="2" stroke-linecap="round" stroke-linejoin="round"/>
<path d="M16.5312 19.7656H12.2188V32.7031H16.5312V19.7656Z" stroke="white" stroke-width="2" stroke-linecap="round" stroke-linejoin="round"/>
<path d="M14.375 16.5313C15.5659 16.5313 16.5312 15.5659 16.5312 14.375C16.5312 13.1842 15.5659 12.2188 14.375 12.2188C13.1841 12.2188 12.2188 13.1842 12.2188 14.375C12.2188 15.5659 13.1841 16.5313 14.375 16.5313Z" stroke="white" stroke-width="2" stroke-linecap="round" stroke-linejoin="round"/>
</svg>
