<svg width="150" height="40" viewBox="0 0 150 40" fill="none" xmlns="http://www.w3.org/2000/svg">
<path d="M13.4727 32.5273C15.1133 32.5273 16.1973 31.707 16.8711 29.9492L26.5391 4.66602C26.7148 4.22656 26.8027 3.78711 26.8027 3.34766C26.8027 1.94141 25.8066 1.00391 24.2832 1.00391C23.1699 1.00391 22.4082 1.61914 21.9395 2.9375L13.5605 26.5801H13.4434L5.09375 2.9375C4.625 1.61914 3.86328 1.00391 2.7207 1.00391C1.19727 1.00391 0.171875 1.94141 0.171875 3.34766C0.171875 3.78711 0.259766 4.22656 0.435547 4.66602L10.1328 29.9492C10.8652 31.7949 11.8027 32.5273 13.4727 32.5273ZM33.8633 32.5273C35.416 32.5273 36.4121 31.3555 36.4121 29.8027V12.8984C36.4121 8.67969 39.3418 5.51562 43.3848 5.51562C47.1641 5.51562 49.625 7.91797 49.625 11.5801V29.8027C49.625 31.3555 50.6211 32.5273 52.1738 32.5273C53.7266 32.5273 54.7227 31.3555 54.7227 29.8027V12.6348C54.7227 8.50391 57.5645 5.51562 61.6074 5.51562C65.6211 5.51562 67.9355 7.97656 67.9355 12.1367V29.8027C67.9355 31.3555 68.9316 32.5273 70.4844 32.5273C72.0371 32.5273 73.0332 31.3555 73.0332 29.8027V10.9648C73.0332 4.92969 69.1367 1.00391 63.1016 1.00391C58.8242 1.00391 55.25 3.17188 53.5508 6.80469H53.4336C52.1152 3.11328 49.0391 1.00391 44.8789 1.00391C40.7773 1.00391 37.6719 3.17188 36.2363 6.39453H36.1191V3.58203C36.1191 2.05859 35.123 1.00391 33.7168 1.00391C32.3105 1.00391 31.3145 2.05859 31.3145 3.58203V29.8027C31.3145 31.3555 32.3105 32.5273 33.8633 32.5273Z" fill="#004EAA"/>
<path d="M136.314 39.5273C144.263 39.6079 149.205 35.0962 149.205 28.436V3.00391C149.205 1.55371 148.211 0.586914 146.868 0.586914C145.525 0.586914 144.532 1.55371 144.532 3.00391V5.6626H144.451C142.598 2.52051 139.51 0.586914 135.562 0.586914C128.338 0.586914 123.665 6.17285 123.665 14.9277C123.665 23.6021 128.338 29.2148 135.455 29.2148C139.375 29.2148 142.706 27.2275 144.424 24.1929H144.532V28.5972C144.532 32.7598 141.497 35.6333 136.502 35.5527C133.655 35.499 131.695 34.4785 129.305 31.8467C128.58 31.041 128.123 30.7725 127.344 30.7725C126.109 30.7725 125.25 31.605 125.25 32.7866C125.25 33.4043 125.411 33.9414 125.787 34.5322C127.747 37.6206 131.641 39.4736 136.314 39.5273ZM136.395 25.106C131.587 25.106 128.445 21.1851 128.445 14.9277C128.445 8.67041 131.587 4.6958 136.395 4.6958C141.255 4.6958 144.532 8.77783 144.532 14.9277C144.532 21.0776 141.255 25.106 136.395 25.106Z" fill="#004EAA"/>
<path d="M84 17H97" stroke="#DC1A1A" stroke-width="4" stroke-linecap="round"/>
<path d="M84 3H97" stroke="#DC1A1A" stroke-width="4" stroke-linecap="round"/>
<path d="M84 31H97" stroke="#DC1A1A" stroke-width="4" stroke-linecap="round"/>
<path d="M103.2 15.9608C104 16.4227 104 17.5774 103.2 18.0392L96.3 22.0229C95.5 22.4848 94.5 21.9075 94.5 20.9837L94.5 13.0163C94.5 12.0925 95.5 11.5152 96.3 11.9771L103.2 15.9608Z" fill="#DC1A1A"/>
<path d="M109.859 32.5273C111.354 32.5273 112.408 31.4141 112.408 29.8027V13.0742C112.408 9.17773 114.371 5.86719 118.971 5.86719C120.084 5.86719 120.875 5.66211 121.402 5.22266C121.93 4.8125 122.193 4.22656 122.193 3.43555C122.193 2.73242 121.988 2.14648 121.549 1.73633C121.051 1.26758 120.26 1.00391 119.146 1.00391C116.1 1.00391 113.111 3.34766 112.232 6.51172H112.115V3.58203C112.115 2.05859 111.119 1.00391 109.713 1.00391C108.307 1.00391 107.311 2.05859 107.311 3.58203V29.8027C107.311 31.4141 108.365 32.5273 109.859 32.5273Z" fill="#004EAA"/>
<path d="M88.4728 11.2617C89 14 91.5 16 91.5 16" stroke="#DC1A1A" stroke-width="3" stroke-linecap="round"/>
<path d="M88.4917 22.9209C89.0189 20.1826 91.5189 18.1826 91.5189 18.1826" stroke="#DC1A1A" stroke-width="3" stroke-linecap="round"/>
</svg>
