<svg width="24" height="24" viewBox="0 0 24 24" fill="none" xmlns="http://www.w3.org/2000/svg">
<path d="M22.7187 17.2418V20.4762C22.72 20.7765 22.6584 21.0737 22.5382 21.3488C22.4179 21.6239 22.2414 21.8709 22.0202 22.0739C21.7989 22.2768 21.5377 22.4314 21.2533 22.5276C20.9689 22.6238 20.6675 22.6595 20.3684 22.6325C17.0508 22.272 13.8641 21.1383 11.0642 19.3226C8.45926 17.6673 6.25073 15.4588 4.59545 12.8539C2.7734 10.0413 1.63949 6.83901 1.28561 3.50653C1.25866 3.20839 1.2941 2.90791 1.38965 2.62422C1.4852 2.34053 1.63877 2.07984 1.84059 1.85875C2.04241 1.63766 2.28805 1.46101 2.56188 1.34006C2.83571 1.21911 3.13172 1.1565 3.43108 1.15622H6.66545C7.18867 1.15107 7.69591 1.33635 8.09263 1.67753C8.48935 2.0187 8.74847 2.4925 8.8217 3.01059C8.95822 4.04566 9.21139 5.06197 9.57639 6.04012C9.72144 6.42601 9.75284 6.84539 9.66685 7.24857C9.58086 7.65175 9.3811 8.02184 9.09123 8.31497L7.72201 9.68419C9.25678 12.3833 11.4916 14.6182 14.1908 16.1529L15.56 14.7837C15.8531 14.4938 16.2232 14.2941 16.6264 14.2081C17.0296 14.1221 17.4489 14.1535 17.8348 14.2986C18.813 14.6636 19.8293 14.9167 20.8644 15.0532C21.3881 15.1271 21.8664 15.3909 22.2083 15.7945C22.5502 16.198 22.7319 16.7131 22.7187 17.2418Z" stroke="white" stroke-width="2" stroke-linecap="round" stroke-linejoin="round"/>
</svg>
