<svg 
 xmlns="http://www.w3.org/2000/svg"
 xmlns:xlink="http://www.w3.org/1999/xlink"
 width="167px" height="119px">
<path fill-rule="evenodd"  fill="rgb(254, 42, 42)"
 d="M5.637,103.886 C8.93,104.375 17.858,118.721 17.858,118.721 L162.697,118.983 C163.721,118.490 165.682,113.944 166.10,112.760 C166.337,111.573 164.740,109.445 164.454,109.37 C164.165,108.629 164.248,105.112 164.125,104.172 C164.3,103.230 163.797,103.27 163.797,103.27 L158.498,103.609 L158.408,98.151 L158.561,96.963 C160.702,96.920 160.970,96.785 160.951,96.454 C160.919,95.962 158.983,96.54 158.983,96.54 C158.983,96.54 159.659,74.401 160.519,63.851 C161.379,53.301 163.714,14.188 163.714,14.188 C163.714,14.188 164.125,13.614 164.944,12.939 C165.764,12.266 166.153,11.774 165.887,11.408 C165.621,11.37 165.159,11.468 165.159,11.468 L164.750,11.710 L131.191,9.88 L129.418,7.380 C129.406,7.167 129.383,6.992 129.337,6.890 C129.9,6.154 127.739,6.316 127.739,6.316 C127.739,6.316 127.733,6.389 127.723,6.494 L99.694,4.28 L81.805,0.648 C81.145,0.379 81.110,0.40 81.110,0.40 L78.841,0.40 L78.806,0.1 C78.806,0.1 78.787,0.22 78.776,0.40 L78.324,0.40 L78.324,0.527 L78.424,0.527 C77.969,1.167 77.141,2.307 76.193,3.578 C74.762,5.499 65.867,16.742 57.387,26.924 C48.906,37.106 28.69,66.60 24.626,70.720 C24.33,71.529 23.187,72.841 22.204,74.449 L6.7,95.933 C5.599,95.845 5.197,95.755 4.857,95.664 C3.135,95.217 3.382,95.378 3.260,95.706 C3.202,95.854 4.329,96.184 5.579,96.503 L2.604,100.450 C2.604,100.450 1.539,100.531 1.45,101.923 C0.555,103.313 3.177,103.393 5.637,103.886 ZM54.86,108.578 C54.86,108.578 42.614,107.476 34.379,105.882 C26.143,104.285 8.578,101.125 8.578,101.125 L8.728,98.397 C8.728,98.397 11.186,98.112 14.509,97.416 C17.826,96.719 54.704,88.501 54.704,88.501 L54.86,108.578 ZM67.241,96.127 C67.222,96.537 67.935,96.557 67.935,96.557 C67.935,96.557 67.77,104.83 66.751,106.986 C66.419,109.886 64.536,109.111 64.536,109.111 L54.856,108.608 L55.164,88.426 L63.892,86.528 L67.486,94.43 C67.486,94.43 67.519,94.408 67.519,94.593 C67.519,94.778 68.40,94.837 68.40,94.837 L68.81,95.798 C68.81,95.798 67.260,95.718 67.241,96.127 ZM67.855,93.979 L64.228,86.314 C64.228,86.314 64.659,85.822 64.659,85.270 C64.659,84.719 64.351,84.779 64.351,84.779 L70.683,71.775 L68.164,94.104 L67.855,93.979 ZM70.108,94.335 L77.445,35.585 L80.558,33.366 C80.558,33.366 80.620,34.40 80.250,34.530 C79.883,35.23 77.853,52.688 77.178,57.841 C76.503,62.993 71.706,93.724 71.706,93.724 C71.706,93.724 71.706,93.724 71.582,94.582 C71.461,95.440 70.600,95.255 70.600,95.255 C70.600,95.255 70.600,95.255 70.600,94.890 C70.600,94.520 70.108,94.335 70.108,94.335 ZM81.29,106.12 C80.454,104.784 69.65,104.417 69.65,104.417 L69.863,97.282 C69.863,97.282 69.863,97.282 70.201,97.282 C70.540,97.282 70.376,96.361 70.376,96.361 C70.376,96.361 92.612,94.748 105.227,93.856 L101.315,108.721 C95.986,108.275 82.258,108.219 82.258,108.219 C82.258,108.219 81.602,107.237 81.29,106.12 ZM101.616,108.747 L105.541,93.835 C109.559,93.551 112.556,93.344 113.440,93.294 C114.345,93.243 114.996,93.199 115.466,93.154 L114.729,95.451 C114.729,95.451 114.729,95.451 114.566,95.576 C114.402,95.700 114.156,96.352 114.156,96.352 L104.284,110.650 L102.827,110.671 C102.827,110.671 103.320,109.937 103.400,109.120 C103.415,108.974 102.733,108.851 101.616,108.747 ZM126.428,20.55 L124.585,35.882 C124.585,35.882 124.585,35.882 123.559,36.370 C122.535,36.864 122.659,37.353 122.699,37.885 C122.741,38.417 124.544,37.476 124.544,37.476 L121.814,58.815 L116.98,92.10 C115.541,91.902 114.751,91.986 114.751,91.986 C114.751,91.986 114.365,75.376 114.113,63.756 L114.196,63.924 L126.209,19.869 C126.321,19.976 126.428,20.55 126.428,20.55 ZM128.804,34.469 C128.866,34.195 137.993,28.672 137.993,28.672 C137.993,28.672 136.88,30.207 133.630,31.741 C131.171,33.274 129.174,34.868 129.174,34.868 C129.174,34.868 128.148,45.982 126.919,56.204 C125.690,66.425 121.961,86.872 121.675,88.224 C121.387,89.571 121.756,90.757 121.756,92.680 C121.756,94.601 120.324,95.748 119.750,95.953 C119.176,96.157 119.278,96.21 119.278,96.21 L126.237,36.341 C126.521,36.256 126.918,36.122 127.359,35.944 C128.191,35.604 128.741,34.746 128.804,34.469 ZM108.317,110.592 L104.641,110.644 L114.771,96.271 L115.129,106.45 C113.758,106.117 110.501,106.293 109.220,106.421 C107.582,106.585 108.317,110.592 108.317,110.592 ZM115.499,106.26 L115.139,95.290 L115.806,93.112 C116.813,92.981 116.636,92.810 116.636,92.394 C116.636,92.226 116.488,92.122 116.282,92.56 L121.298,62.841 L115.774,106.12 C115.774,106.12 115.665,106.18 115.499,106.26 ZM156.679,103.809 L158.204,98.560 L158.261,103.635 L156.679,103.809 ZM158.81,98.316 L156.433,103.836 L142.572,105.357 C142.572,105.357 142.604,103.231 142.696,101.757 C142.787,100.286 143.464,100.255 144.139,100.72 C144.816,99.887 145.400,100.102 145.275,99.243 C145.153,98.385 118.847,99.243 118.847,99.243 L119.278,96.577 C119.278,96.577 119.801,96.513 119.831,96.760 C119.863,97.5 120.78,96.972 120.78,96.972 C120.78,96.972 147.736,96.942 154.66,96.972 C155.935,96.982 157.293,96.983 158.292,96.968 L158.81,98.316 ZM164.233,12.15 L149.142,20.926 C149.66,20.761 148.974,20.567 148.862,20.342 C148.585,19.790 148.124,19.545 148.124,19.545 L132.297,9.547 L164.233,12.15 ZM132.82,9.763 L147.570,19.699 L147.448,19.945 L131.930,9.938 L132.82,9.763 ZM131.469,10.468 L131.667,10.240 C132.467,10.765 147.250,20.473 147.878,20.711 C148.198,20.832 148.555,20.984 148.835,21.107 L128.816,32.925 L131.469,10.468 ZM128.354,18.828 C128.354,18.828 128.765,16.90 128.888,13.842 C128.983,12.99 129.392,9.347 129.421,7.843 L130.945,9.362 L131.37,10.131 L128.513,33.104 L126.476,34.307 L127.904,22.60 C127.904,22.60 128.517,22.19 128.640,21.37 C128.763,20.58 128.354,18.828 128.354,18.828 ZM126.798,17.358 C126.756,18.459 126.470,18.664 126.59,19.112 C125.947,19.237 125.933,19.361 125.959,19.480 L114.94,62.911 C114.80,62.266 114.67,61.634 114.54,61.29 C113.809,49.498 116.82,11.315 116.237,8.279 C116.331,6.423 116.259,5.803 116.190,5.597 L127.709,6.648 C127.556,8.340 126.835,16.369 126.798,17.358 ZM80.64,13.246 C80.64,13.246 81.27,5.246 81.364,2.422 L97.180,3.864 L81.394,2.178 C81.443,1.760 81.476,1.481 81.481,1.438 C81.511,1.133 81.909,1.776 82.186,1.929 C82.462,2.84 83.138,1.532 83.138,1.255 C83.138,1.201 83.119,1.167 83.98,1.132 L98.455,3.981 L115.991,5.579 L77.756,33.93 L77.791,32.815 C77.791,32.815 79.482,18.368 79.482,17.111 C79.482,15.854 80.403,14.964 80.466,14.351 C80.528,13.737 80.64,13.246 80.64,13.246 ZM78.690,0.527 L79.450,0.527 L79.339,2.157 L76.840,4.569 C76.840,4.569 76.840,4.569 76.163,5.59 C75.487,5.550 70.509,11.161 70.509,11.161 L78.690,0.527 ZM66.689,30.524 C68.408,18.340 74.903,7.542 75.179,6.989 C75.457,6.437 75.642,6.591 76.70,6.471 C76.503,6.347 76.471,5.486 76.471,5.486 L79.292,2.878 L78.794,10.140 C78.794,10.140 78.344,10.180 78.15,10.161 C77.687,10.138 77.772,10.180 77.772,10.424 C77.772,10.672 78.57,10.590 78.181,10.650 C78.305,10.713 78.242,10.937 77.976,10.957 C77.710,10.976 77.832,11.509 77.832,11.509 L78.467,11.531 C78.467,11.531 78.376,11.988 78.281,12.693 C78.192,13.402 77.639,13.276 77.547,14.226 C77.454,15.177 77.884,15.362 77.884,15.362 L75.426,34.838 C75.426,34.838 73.859,36.96 73.460,36.525 C73.60,36.954 73.182,37.322 73.643,37.291 C74.106,37.261 73.828,37.779 73.980,37.997 C74.134,38.212 74.923,37.760 74.923,37.760 C74.923,37.760 71.974,62.217 71.563,66.387 C71.154,70.558 69.391,73.665 68.287,76.283 C67.180,78.899 64.517,83.745 63.920,84.585 C63.837,84.704 63.727,84.798 63.627,84.904 L60.706,79.310 C60.706,79.310 64.968,42.711 66.689,30.524 ZM39.132,82.682 C45.709,81.517 60.276,79.554 60.276,79.554 L63.164,85.300 L63.274,85.242 C62.745,85.674 62.202,85.934 62.202,85.934 C62.202,85.934 15.161,96.391 12.610,96.822 C10.59,97.250 9.908,96.729 9.908,96.729 C9.908,96.729 11.198,94.489 11.781,93.507 C12.365,92.526 15.41,90.535 19.463,87.711 C23.890,84.890 32.557,83.849 39.132,82.682 ZM20.506,77.282 C15.828,85.208 9.610,96.608 9.610,96.608 C9.610,96.608 7.906,96.330 6.330,96.3 L20.506,77.282 ZM5.890,96.585 C7.316,96.941 8.789,97.260 8.789,97.260 C8.789,97.260 8.789,97.260 7.971,97.384 C7.150,97.506 7.356,100.983 7.356,100.983 C7.356,100.983 7.356,100.983 6.496,100.897 C5.635,100.817 2.932,100.489 2.932,100.489 L5.890,96.585 ZM98.455,3.981 L97.180,3.864 L98.709,4.28 L98.455,3.981 Z"/>
</svg>