<svg width="46" height="46" viewBox="0 0 46 46" fill="none" xmlns="http://www.w3.org/2000/svg">
<path opacity="0.1" fill-rule="evenodd" clip-rule="evenodd" d="M0 23C0 10.2975 10.2975 0 23 0C35.7025 0 46 10.2975 46 23C46 35.7025 35.7025 46 23 46C10.2975 46 0 35.7025 0 23Z" fill="white"/>
<path d="M33.7812 28.3043V31.5387C33.7825 31.839 33.7209 32.1362 33.6007 32.4113C33.4804 32.6864 33.3039 32.9334 33.0827 33.1364C32.8614 33.3393 32.6002 33.4939 32.3158 33.5901C32.0314 33.6863 31.73 33.722 31.4309 33.695C28.1133 33.3345 24.9266 32.2008 22.1267 30.3851C19.5218 28.7298 17.3132 26.5213 15.658 23.9164C13.8359 21.1038 12.702 17.9015 12.3481 14.569C12.3212 14.2709 12.3566 13.9704 12.4521 13.6867C12.5477 13.403 12.7013 13.1423 12.9031 12.9212C13.1049 12.7002 13.3506 12.5235 13.6244 12.4026C13.8982 12.2816 14.1942 12.219 14.4936 12.2187H17.728C18.2512 12.2136 18.7584 12.3988 19.1551 12.74C19.5518 13.0812 19.811 13.555 19.8842 14.0731C20.0207 15.1082 20.2739 16.1245 20.6389 17.1026C20.7839 17.4885 20.8153 17.9079 20.7293 18.3111C20.6434 18.7143 20.4436 19.0843 20.1537 19.3775L18.7845 20.7467C20.3193 23.4458 22.5541 25.6807 25.2533 27.2154L26.6225 25.8462C26.9156 25.5563 27.2857 25.3566 27.6889 25.2706C28.0921 25.1846 28.5114 25.216 28.8973 25.3611C29.8755 25.7261 30.8918 25.9792 31.9269 26.1157C32.4506 26.1896 32.9289 26.4534 33.2708 26.857C33.6127 27.2605 33.7944 27.7756 33.7812 28.3043Z" stroke="white" stroke-width="2" stroke-linecap="round" stroke-linejoin="round"/>
</svg>
